<svg viewBox="0 0 2417 1218.168" version="1.1" xmlns="http://www.w3.org/2000/svg" desc="Created with imagetracer.js version 1.2.6" ><path fill="rgb(0,0,0)" stroke="rgb(0,0,0)" stroke-width="1" opacity="0" d="M 0 0 L 166.77 1.21 L 1.21 326.29 L 0 0 Z " /><path fill="rgb(0,0,0)" stroke="rgb(0,0,0)" stroke-width="1" opacity="0" d="M 1224.21 0 L 1341.43 1.21 L 711.81 1218.17 L 592.16 1216.96 L 756.52 900.33 L 756.52 331.13 L 1052.6 331.13 L 1053.81 327.5 L 1191.58 64.05 L 1213.33 15.71 L 1224.21 0 Z " /><path fill="rgb(0,0,0)" stroke="rgb(0,0,0)" stroke-width="1" opacity="0" d="M 2235.72 0 L 2417 0 L 2417 332.34 L 2414.58 332.34 L 2235.72 0 Z " /><path fill="rgb(0,0,0)" stroke="rgb(0,0,0)" stroke-width="1" opacity="0" d="M 0 331.13 L 420.56 331.13 L 420.56 1218.17 L 0 1218.17 L 0 331.13 Z " /><path fill="rgb(0,0,0)" stroke="rgb(0,0,0)" stroke-width="1" opacity="0" d="M 1674.98 338.38 L 2417 338.38 L 2417 884.62 L 1685.86 884.62 L 1684.65 878.58 L 1544.46 632.05 L 1534.79 612.71 L 1534.79 605.46 L 1655.64 380.68 L 1674.98 338.38 Z " /><path fill="rgb(0,0,0)" stroke="rgb(0,0,0)" stroke-width="1" opacity="0" d="M 2415.79 887.04 L 2417 1218.17 L 2244.18 1218.17 L 2242.98 1214.54 L 2415.79 887.04 Z " /><path fill="rgb(0,0,0)" stroke="rgb(0,0,0)" stroke-width="1" opacity="0" d="M 1237.5 889.46 Q 1243.95 886.74 1242.34 893.08 L 1428.45 1216.96 L 1065.9 1218.17 L 1237.5 889.46 Z " /><path fill="rgb(239,168,57)" stroke="rgb(239,168,57)" stroke-width="1" opacity="0.4980392156862745" d="M 167.98 0 L 165.56 4.83 L 167.98 0 Z " /><path fill="rgb(239,168,57)" stroke="rgb(239,168,57)" stroke-width="1" opacity="0.4980392156862745" d="M 2241.77 14.5 L 2247.81 22.96 L 2242.98 20.54 L 2241.77 14.5 Z " /><path fill="rgb(239,168,57)" stroke="rgb(239,168,57)" stroke-width="1" opacity="0.4980392156862745" d="M 1212.13 16.92 L 1213.33 20.54 L 1197.62 48.34 L 1198.83 44.71 L 1212.13 16.92 Z " /><path fill="rgb(239,168,57)" stroke="rgb(239,168,57)" stroke-width="1" opacity="0.4980392156862745" d="M 1332.98 16.92 L 1331.77 20.54 L 1330.56 24.17 L 1329.35 20.54 L 1332.98 16.92 Z " /><path fill="rgb(239,168,57)" stroke="rgb(239,168,57)" stroke-width="1" opacity="0.4980392156862745" d="M 1328.14 26.59 L 1326.93 30.21 L 1325.72 33.84 L 1324.52 30.21 L 1328.14 26.59 Z " /><path fill="rgb(239,168,57)" stroke="rgb(239,168,57)" stroke-width="1" opacity="0.4980392156862745" d="M 151.06 31.42 L 149.85 35.05 L 148.65 38.67 L 147.44 35.05 L 151.06 31.42 Z " /><path fill="rgb(239,168,57)" stroke="rgb(239,168,57)" stroke-width="1" opacity="0.4980392156862745" d="M 1323.31 36.25 L 1322.1 39.88 L 1320.89 43.51 L 1319.68 39.88 L 1323.31 36.25 Z " /><path fill="rgb(239,168,57)" stroke="rgb(239,168,57)" stroke-width="1" opacity="0.4980392156862745" d="M 2253.85 36.25 L 2264.73 54.38 L 2259.89 51.97 L 2253.85 36.25 Z " /><path fill="rgb(239,168,57)" stroke="rgb(239,168,57)" stroke-width="1" opacity="0.4980392156862745" d="M 146.23 41.09 L 145.02 44.71 L 143.81 48.34 L 142.6 44.71 L 146.23 41.09 Z " /><path fill="rgb(239,168,57)" stroke="rgb(239,168,57)" stroke-width="1" opacity="0.4980392156862745" d="M 1318.47 45.92 L 1317.26 49.55 L 1311.22 60.42 L 1312.43 56.8 L 1318.47 45.92 Z " /><path fill="rgb(239,168,57)" stroke="rgb(239,168,57)" stroke-width="1" opacity="0.4980392156862745" d="M 1195.21 50.76 L 1196.41 54.38 L 1191.58 56.8 L 1195.21 50.76 Z " /><path fill="rgb(239,168,57)" stroke="rgb(239,168,57)" stroke-width="1" opacity="0.4980392156862745" d="M 138.98 55.59 L 137.77 59.22 L 136.56 62.84 L 135.35 59.22 L 138.98 55.59 Z " /><path fill="rgb(239,168,57)" stroke="rgb(239,168,57)" stroke-width="1" opacity="0.4980392156862745" d="M 1190.37 60.42 L 1191.58 64.05 L 1186.75 66.47 L 1190.37 60.42 Z " /><path fill="rgb(239,168,57)" stroke="rgb(239,168,57)" stroke-width="1" opacity="0.4980392156862745" d="M 134.14 65.26 L 132.94 68.88 L 131.73 72.51 L 130.52 68.88 L 134.14 65.26 Z " /><path fill="rgb(239,168,57)" stroke="rgb(239,168,57)" stroke-width="1" opacity="0.4980392156862745" d="M 2270.77 67.68 L 2274.4 73.72 L 2271.98 73.72 L 2270.77 67.68 Z " /><path fill="rgb(239,168,57)" stroke="rgb(239,168,57)" stroke-width="1" opacity="0.4980392156862745" d="M 129.31 74.93 L 128.1 78.55 L 126.89 82.18 L 125.68 78.55 L 129.31 74.93 Z " /><path fill="rgb(239,168,57)" stroke="rgb(239,168,57)" stroke-width="1" opacity="0.4980392156862745" d="M 1299.14 82.18 L 1297.93 85.8 L 1296.72 89.43 L 1295.51 85.8 L 1299.14 82.18 Z " /><path fill="rgb(239,168,57)" stroke="rgb(239,168,57)" stroke-width="1" opacity="0.4980392156862745" d="M 122.06 89.43 L 120.85 93.05 L 119.64 96.68 L 118.43 93.05 L 122.06 89.43 Z " /><path fill="rgb(239,168,57)" stroke="rgb(239,168,57)" stroke-width="1" opacity="0.4980392156862745" d="M 2282.86 89.43 L 2286.48 95.47 L 2284.06 95.47 L 2282.86 89.43 Z " /><path fill="rgb(239,168,57)" stroke="rgb(239,168,57)" stroke-width="1" opacity="0.4980392156862745" d="M 117.22 99.1 L 116.02 102.72 L 100.31 132.94 L 101.51 129.31 L 117.22 99.1 Z " /><path fill="rgb(239,168,57)" stroke="rgb(239,168,57)" stroke-width="1" opacity="0.4980392156862745" d="M 2287.69 99.1 L 2293.73 107.56 L 2288.9 105.14 L 2287.69 99.1 Z " /><path fill="rgb(239,168,57)" stroke="rgb(239,168,57)" stroke-width="1" opacity="0.4980392156862745" d="M 1168.62 103.93 L 1167.41 107.56 L 1158.95 123.27 L 1160.16 119.64 L 1168.62 103.93 Z " /><path fill="rgb(239,168,57)" stroke="rgb(239,168,57)" stroke-width="1" opacity="0.4980392156862745" d="M 1287.05 106.35 L 1285.84 109.97 L 1272.55 135.35 L 1273.76 131.73 L 1287.05 106.35 Z " /><path fill="rgb(239,168,57)" stroke="rgb(239,168,57)" stroke-width="1" opacity="0.4980392156862745" d="M 2294.94 111.18 L 2298.57 117.22 L 2296.15 117.22 L 2294.94 111.18 Z " /><path fill="rgb(239,168,57)" stroke="rgb(239,168,57)" stroke-width="1" opacity="0.4980392156862745" d="M 2299.78 120.85 L 2303.4 126.89 L 2300.98 126.89 L 2299.78 120.85 Z " /><path fill="rgb(239,168,57)" stroke="rgb(239,168,57)" stroke-width="1" opacity="0.4980392156862745" d="M 1154.12 130.52 L 1155.33 134.14 L 1150.49 136.56 L 1154.12 130.52 Z " /><path fill="rgb(239,168,57)" stroke="rgb(239,168,57)" stroke-width="1" opacity="0.4980392156862745" d="M 1149.28 140.19 L 1150.49 143.81 L 1145.66 146.23 L 1149.28 140.19 Z " /><path fill="rgb(239,168,57)" stroke="rgb(239,168,57)" stroke-width="1" opacity="0.4980392156862745" d="M 2311.86 142.6 L 2315.49 148.65 L 2313.07 148.65 L 2311.86 142.6 Z " /><path fill="rgb(239,168,57)" stroke="rgb(239,168,57)" stroke-width="1" opacity="0.4980392156862745" d="M 93.05 145.02 L 94.26 148.65 L 89.43 151.06 L 93.05 145.02 Z " /><path fill="rgb(239,168,57)" stroke="rgb(239,168,57)" stroke-width="1" opacity="0.4980392156862745" d="M 2316.69 152.27 L 2322.74 160.73 L 2317.9 158.31 L 2316.69 152.27 Z " /><path fill="rgb(239,168,57)" stroke="rgb(239,168,57)" stroke-width="1" opacity="0.4980392156862745" d="M 1258.05 161.94 L 1256.84 165.56 L 1255.63 169.19 L 1254.42 165.56 L 1258.05 161.94 Z " /><path fill="rgb(239,168,57)" stroke="rgb(239,168,57)" stroke-width="1" opacity="0.4980392156862745" d="M 2323.95 164.36 L 2327.57 170.4 L 2325.15 170.4 L 2323.95 164.36 Z " /><path fill="rgb(239,168,57)" stroke="rgb(239,168,57)" stroke-width="1" opacity="0.4980392156862745" d="M 2328.78 174.02 L 2334.82 182.48 L 2329.99 180.07 L 2328.78 174.02 Z " /><path fill="rgb(239,168,57)" stroke="rgb(239,168,57)" stroke-width="1" opacity="0.4980392156862745" d="M 1248.38 181.27 L 1247.17 184.9 L 1238.71 203.03 L 1237.5 199.4 L 1248.38 181.27 Z " /><path fill="rgb(239,168,57)" stroke="rgb(239,168,57)" stroke-width="1" opacity="0.4980392156862745" d="M 1127.53 183.69 L 1126.32 187.32 L 1125.11 190.94 L 1123.9 187.32 L 1127.53 183.69 Z " /><path fill="rgb(239,168,57)" stroke="rgb(239,168,57)" stroke-width="1" opacity="0.4980392156862745" d="M 1120.28 195.78 L 1121.49 199.4 L 1110.61 217.53 L 1111.82 213.9 L 1120.28 195.78 Z " /><path fill="rgb(239,168,57)" stroke="rgb(239,168,57)" stroke-width="1" opacity="0.4980392156862745" d="M 2340.86 195.78 L 2344.49 201.82 L 2342.07 201.82 L 2340.86 195.78 Z " /><path fill="rgb(239,168,57)" stroke="rgb(239,168,57)" stroke-width="1" opacity="0.4980392156862745" d="M 64.05 203.03 L 62.84 206.65 L 61.63 210.28 L 60.42 206.65 L 64.05 203.03 Z " /><path fill="rgb(239,168,57)" stroke="rgb(239,168,57)" stroke-width="1" opacity="0.4980392156862745" d="M 2345.7 205.44 L 2351.74 213.9 L 2346.91 211.49 L 2345.7 205.44 Z " /><path fill="rgb(239,168,57)" stroke="rgb(239,168,57)" stroke-width="1" opacity="0.4980392156862745" d="M 1233.88 207.86 L 1235.09 211.49 L 1230.25 213.9 L 1233.88 207.86 Z " /><path fill="rgb(239,168,57)" stroke="rgb(239,168,57)" stroke-width="1" opacity="0.4980392156862745" d="M 1108.19 219.95 L 1109.4 223.57 L 1104.57 225.99 L 1108.19 219.95 Z " /><path fill="rgb(239,168,57)" stroke="rgb(239,168,57)" stroke-width="1" opacity="0.4980392156862745" d="M 51.97 227.2 L 50.76 230.82 L 49.55 234.45 L 48.34 230.82 L 51.97 227.2 Z " /><path fill="rgb(239,168,57)" stroke="rgb(239,168,57)" stroke-width="1" opacity="0.4980392156862745" d="M 2357.78 227.2 L 2363.83 235.66 L 2358.99 233.24 L 2357.78 227.2 Z " /><path fill="rgb(239,168,57)" stroke="rgb(239,168,57)" stroke-width="1" opacity="0.4980392156862745" d="M 1103.36 229.61 L 1104.57 233.24 L 1099.73 235.66 L 1103.36 229.61 Z " /><path fill="rgb(239,168,57)" stroke="rgb(239,168,57)" stroke-width="1" opacity="0.4980392156862745" d="M 47.13 236.87 L 45.92 240.49 L 44.71 244.12 L 43.51 240.49 L 47.13 236.87 Z " /><path fill="rgb(239,168,57)" stroke="rgb(239,168,57)" stroke-width="1" opacity="0.4980392156862745" d="M 1219.38 236.87 L 1218.17 240.49 L 1216.96 244.12 L 1215.75 240.49 L 1219.38 236.87 Z " /><path fill="rgb(239,168,57)" stroke="rgb(239,168,57)" stroke-width="1" opacity="0.4980392156862745" d="M 42.3 246.53 L 41.09 250.16 L 39.88 253.78 L 38.67 250.16 L 42.3 246.53 Z " /><path fill="rgb(239,168,57)" stroke="rgb(239,168,57)" stroke-width="1" opacity="0.4980392156862745" d="M 2369.87 248.95 L 2378.33 264.66 L 2375.91 264.66 L 2369.87 248.95 Z " /><path fill="rgb(239,168,57)" stroke="rgb(239,168,57)" stroke-width="1" opacity="0.4980392156862745" d="M 1212.13 251.37 L 1210.92 254.99 L 1209.71 258.62 L 1208.5 254.99 L 1212.13 251.37 Z " /><path fill="rgb(239,168,57)" stroke="rgb(239,168,57)" stroke-width="1" opacity="0.4980392156862745" d="M 37.46 256.2 L 36.25 259.83 L 27.8 277.95 L 26.59 274.33 L 37.46 256.2 Z " /><path fill="rgb(239,168,57)" stroke="rgb(239,168,57)" stroke-width="1" opacity="0.4980392156862745" d="M 1207.29 261.04 L 1206.08 264.66 L 1197.62 280.37 L 1198.83 276.75 L 1207.29 261.04 Z " /><path fill="rgb(239,168,57)" stroke="rgb(239,168,57)" stroke-width="1" opacity="0.4980392156862745" d="M 1086.44 263.45 L 1085.23 267.08 L 1084.02 270.7 L 1082.82 267.08 L 1086.44 263.45 Z " /><path fill="rgb(239,168,57)" stroke="rgb(239,168,57)" stroke-width="1" opacity="0.4980392156862745" d="M 1079.19 275.54 L 1080.4 279.16 L 1069.52 297.29 L 1070.73 293.67 L 1079.19 275.54 Z " /><path fill="rgb(239,168,57)" stroke="rgb(239,168,57)" stroke-width="1" opacity="0.4980392156862745" d="M 25.38 280.37 L 24.17 284 L 15.71 299.71 L 16.92 296.08 L 25.38 280.37 Z " /><path fill="rgb(239,168,57)" stroke="rgb(239,168,57)" stroke-width="1" opacity="0.4980392156862745" d="M 2386.79 280.37 L 2390.41 286.41 L 2388 286.41 L 2386.79 280.37 Z " /><path fill="rgb(239,168,57)" stroke="rgb(239,168,57)" stroke-width="1" opacity="0.4980392156862745" d="M 2398.87 302.13 L 2402.5 308.17 L 2400.08 308.17 L 2398.87 302.13 Z " /><path fill="rgb(239,168,57)" stroke="rgb(239,168,57)" stroke-width="1" opacity="0.4980392156862745" d="M 1183.12 306.96 L 1181.91 310.58 L 1180.7 314.21 L 1179.5 310.58 L 1183.12 306.96 Z " /><path fill="rgb(239,168,57)" stroke="rgb(239,168,57)" stroke-width="1" opacity="0.4980392156862745" d="M 1062.27 309.38 L 1063.48 313 L 1058.65 315.42 L 1062.27 309.38 Z " /><path fill="rgb(239,168,57)" stroke="rgb(239,168,57)" stroke-width="1" opacity="0.4980392156862745" d="M 2403.71 311.79 L 2407.33 317.84 L 2404.91 317.84 L 2403.71 311.79 Z " /><path fill="rgb(239,168,57)" stroke="rgb(239,168,57)" stroke-width="1" opacity="0.4980392156862745" d="M 1057.44 319.04 L 1058.65 322.67 L 1053.81 325.09 L 1057.44 319.04 Z " /><path fill="rgb(239,168,57)" stroke="rgb(239,168,57)" stroke-width="1" opacity="0.4980392156862745" d="M 1.21 326.29 L 3.63 328.71 L 420.56 329.92 L 0 331.13 L 1.21 326.29 Z " /><path fill="rgb(239,168,57)" stroke="rgb(239,168,57)" stroke-width="1" opacity="0.4980392156862745" d="M 754.1 328.71 L 1053.81 329.92 L 756.52 331.13 L 756.52 900.33 L 752.9 903.96 L 754.1 900.33 L 754.1 328.71 Z " /><path fill="rgb(239,168,57)" stroke="rgb(239,168,57)" stroke-width="1" opacity="0.4980392156862745" d="M 1171.04 331.13 L 1169.83 334.75 L 1163.79 348.05 L 1162.58 344.42 L 1171.04 331.13 Z " /><path fill="rgb(239,168,57)" stroke="rgb(239,168,57)" stroke-width="1" opacity="0.4980392156862745" d="M 2415.79 333.55 L 2417 338.38 L 1674.98 337.17 L 2413.37 335.96 L 2415.79 333.55 Z " /><path fill="rgb(239,168,57)" stroke="rgb(239,168,57)" stroke-width="1" opacity="0.4980392156862745" d="M 1158.95 352.88 L 1160.16 356.51 L 1155.33 358.92 L 1158.95 352.88 Z " /><path fill="rgb(239,168,57)" stroke="rgb(239,168,57)" stroke-width="1" opacity="0.4980392156862745" d="M 1664.1 357.72 L 1665.31 361.34 L 1656.85 374.63 L 1658.06 371.01 L 1664.1 357.72 Z " /><path fill="rgb(239,168,57)" stroke="rgb(239,168,57)" stroke-width="1" opacity="0.4980392156862745" d="M 1654.44 377.05 L 1655.64 380.68 L 1650.81 383.09 L 1654.44 377.05 Z " /><path fill="rgb(239,168,57)" stroke="rgb(239,168,57)" stroke-width="1" opacity="0.4980392156862745" d="M 1142.03 386.72 L 1140.82 390.35 L 1139.62 393.97 L 1138.41 390.35 L 1142.03 386.72 Z " /><path fill="rgb(239,168,57)" stroke="rgb(239,168,57)" stroke-width="1" opacity="0.4980392156862745" d="M 1137.2 396.39 L 1135.99 400.01 L 1134.78 403.64 L 1133.57 400.01 L 1137.2 396.39 Z " /><path fill="rgb(239,168,57)" stroke="rgb(239,168,57)" stroke-width="1" opacity="0.4980392156862745" d="M 1642.35 401.22 L 1639.93 406.06 L 1642.35 401.22 Z " /><path fill="rgb(239,168,57)" stroke="rgb(239,168,57)" stroke-width="1" opacity="0.4980392156862745" d="M 1132.36 406.06 L 1131.16 409.68 L 1120.28 430.23 L 1121.49 426.6 L 1132.36 406.06 Z " /><path fill="rgb(239,168,57)" stroke="rgb(239,168,57)" stroke-width="1" opacity="0.4980392156862745" d="M 1635.1 413.31 L 1636.31 416.93 L 1631.47 419.35 L 1635.1 413.31 Z " /><path fill="rgb(239,168,57)" stroke="rgb(239,168,57)" stroke-width="1" opacity="0.4980392156862745" d="M 1620.6 442.31 L 1619.39 445.94 L 1615.76 451.98 L 1616.97 448.35 L 1620.6 442.31 Z " /><path fill="rgb(239,168,57)" stroke="rgb(239,168,57)" stroke-width="1" opacity="0.4980392156862745" d="M 1613.35 454.4 L 1614.56 458.02 L 1609.72 460.44 L 1613.35 454.4 Z " /><path fill="rgb(239,168,57)" stroke="rgb(239,168,57)" stroke-width="1" opacity="0.4980392156862745" d="M 1103.36 461.65 L 1102.15 465.27 L 1098.53 473.73 L 1097.32 470.11 L 1103.36 461.65 Z " /><path fill="rgb(239,168,57)" stroke="rgb(239,168,57)" stroke-width="1" opacity="0.4980392156862745" d="M 1096.11 476.15 L 1094.9 479.77 L 1093.69 483.4 L 1092.48 479.77 L 1096.11 476.15 Z " /><path fill="rgb(239,168,57)" stroke="rgb(239,168,57)" stroke-width="1" opacity="0.4980392156862745" d="M 1091.28 485.82 L 1090.07 489.44 L 1081.61 505.15 L 1082.82 501.53 L 1091.28 485.82 Z " /><path fill="rgb(239,168,57)" stroke="rgb(239,168,57)" stroke-width="1" opacity="0.4980392156862745" d="M 1596.43 488.23 L 1595.22 491.86 L 1591.59 497.9 L 1592.8 494.28 L 1596.43 488.23 Z " /><path fill="rgb(239,168,57)" stroke="rgb(239,168,57)" stroke-width="1" opacity="0.4980392156862745" d="M 1589.18 500.32 L 1590.39 503.94 L 1585.55 506.36 L 1589.18 500.32 Z " /><path fill="rgb(239,168,57)" stroke="rgb(239,168,57)" stroke-width="1" opacity="0.4980392156862745" d="M 1584.34 509.99 L 1585.55 513.61 L 1580.72 516.03 L 1584.34 509.99 Z " /><path fill="rgb(239,168,57)" stroke="rgb(239,168,57)" stroke-width="1" opacity="0.4980392156862745" d="M 1574.68 529.32 L 1573.47 532.95 L 1569.84 538.99 L 1571.05 535.37 L 1574.68 529.32 Z " /><path fill="rgb(239,168,57)" stroke="rgb(239,168,57)" stroke-width="1" opacity="0.4980392156862745" d="M 1067.11 531.74 L 1065.9 535.37 L 1064.69 538.99 L 1063.48 535.37 L 1067.11 531.74 Z " /><path fill="rgb(239,168,57)" stroke="rgb(239,168,57)" stroke-width="1" opacity="0.4980392156862745" d="M 1567.42 541.41 L 1568.63 545.03 L 1562.59 553.49 L 1563.8 549.87 L 1567.42 541.41 Z " /><path fill="rgb(239,168,57)" stroke="rgb(239,168,57)" stroke-width="1" opacity="0.4980392156862745" d="M 1057.44 551.08 L 1056.23 554.7 L 1047.77 572.83 L 1046.56 569.2 L 1057.44 551.08 Z " /><path fill="rgb(239,168,57)" stroke="rgb(239,168,57)" stroke-width="1" opacity="0.4980392156862745" d="M 1042.94 577.66 L 1044.14 581.29 L 1039.31 583.71 L 1042.94 577.66 Z " /><path fill="rgb(239,168,57)" stroke="rgb(239,168,57)" stroke-width="1" opacity="0.4980392156862745" d="M 1548.09 577.66 L 1549.3 581.29 L 1544.46 583.71 L 1548.09 577.66 Z " /><path fill="rgb(239,168,57)" stroke="rgb(239,168,57)" stroke-width="1" opacity="0.4980392156862745" d="M 1543.25 587.33 L 1544.46 590.96 L 1539.63 593.37 L 1543.25 587.33 Z " /><path fill="rgb(239,168,57)" stroke="rgb(239,168,57)" stroke-width="1" opacity="0.4980392156862745" d="M 1538.42 597 L 1539.63 600.62 L 1534.79 603.04 L 1538.42 597 Z " /><path fill="rgb(239,168,57)" stroke="rgb(239,168,57)" stroke-width="1" opacity="0.4980392156862745" d="M 1026.02 611.5 L 1024.81 615.13 L 1023.6 618.75 L 1022.39 615.13 L 1026.02 611.5 Z " /><path fill="rgb(239,168,57)" stroke="rgb(239,168,57)" stroke-width="1" opacity="0.4980392156862745" d="M 1021.18 621.17 L 1019.97 624.79 L 1018.77 628.42 L 1017.56 624.79 L 1021.18 621.17 Z " /><path fill="rgb(239,168,57)" stroke="rgb(239,168,57)" stroke-width="1" opacity="0.4980392156862745" d="M 1540.84 623.59 L 1544.46 629.63 L 1542.05 629.63 L 1540.84 623.59 Z " /><path fill="rgb(239,168,57)" stroke="rgb(239,168,57)" stroke-width="1" opacity="0.4980392156862745" d="M 1016.35 630.84 L 1015.14 634.46 L 1004.26 655.01 L 1005.47 651.38 L 1016.35 630.84 Z " /><path fill="rgb(239,168,57)" stroke="rgb(239,168,57)" stroke-width="1" opacity="0.4980392156862745" d="M 1552.92 645.34 L 1558.96 653.8 L 1554.13 651.38 L 1552.92 645.34 Z " /><path fill="rgb(239,168,57)" stroke="rgb(239,168,57)" stroke-width="1" opacity="0.4980392156862745" d="M 1565.01 667.09 L 1571.05 675.55 L 1566.22 673.13 L 1565.01 667.09 Z " /><path fill="rgb(239,168,57)" stroke="rgb(239,168,57)" stroke-width="1" opacity="0.4980392156862745" d="M 992.18 676.76 L 990.97 680.39 L 989.76 684.01 L 988.55 680.39 L 992.18 676.76 Z " /><path fill="rgb(239,168,57)" stroke="rgb(239,168,57)" stroke-width="1" opacity="0.4980392156862745" d="M 1579.51 693.68 L 1581.93 698.51 L 1579.51 693.68 Z " /><path fill="rgb(239,168,57)" stroke="rgb(239,168,57)" stroke-width="1" opacity="0.4980392156862745" d="M 980.09 700.93 L 978.88 704.56 L 970.43 720.27 L 971.63 716.64 L 980.09 700.93 Z " /><path fill="rgb(239,168,57)" stroke="rgb(239,168,57)" stroke-width="1" opacity="0.4980392156862745" d="M 1586.76 705.76 L 1590.39 711.81 L 1587.97 711.81 L 1586.76 705.76 Z " /><path fill="rgb(239,168,57)" stroke="rgb(239,168,57)" stroke-width="1" opacity="0.4980392156862745" d="M 1591.59 715.43 L 1597.64 723.89 L 1592.8 721.47 L 1591.59 715.43 Z " /><path fill="rgb(239,168,57)" stroke="rgb(239,168,57)" stroke-width="1" opacity="0.4980392156862745" d="M 968.01 722.68 L 969.22 726.31 L 964.38 728.73 L 968.01 722.68 Z " /><path fill="rgb(239,168,57)" stroke="rgb(239,168,57)" stroke-width="1" opacity="0.4980392156862745" d="M 1598.85 727.52 L 1602.47 733.56 L 1600.05 733.56 L 1598.85 727.52 Z " /><path fill="rgb(239,168,57)" stroke="rgb(239,168,57)" stroke-width="1" opacity="0.4980392156862745" d="M 1603.68 737.18 L 1606.1 742.02 L 1603.68 737.18 Z " /><path fill="rgb(239,168,57)" stroke="rgb(239,168,57)" stroke-width="1" opacity="0.4980392156862745" d="M 1610.93 749.27 L 1614.56 755.31 L 1612.14 755.31 L 1610.93 749.27 Z " /><path fill="rgb(239,168,57)" stroke="rgb(239,168,57)" stroke-width="1" opacity="0.4980392156862745" d="M 951.09 756.52 L 949.88 760.15 L 948.67 763.77 L 947.46 760.15 L 951.09 756.52 Z " /><path fill="rgb(239,168,57)" stroke="rgb(239,168,57)" stroke-width="1" opacity="0.4980392156862745" d="M 1615.76 758.94 L 1618.18 763.77 L 1615.76 758.94 Z " /><path fill="rgb(239,168,57)" stroke="rgb(239,168,57)" stroke-width="1" opacity="0.4980392156862745" d="M 1623.02 771.02 L 1631.47 784.32 L 1626.64 781.9 L 1623.02 771.02 Z " /><path fill="rgb(239,168,57)" stroke="rgb(239,168,57)" stroke-width="1" opacity="0.4980392156862745" d="M 941.42 775.86 L 940.21 779.48 L 931.75 797.61 L 930.54 793.98 L 941.42 775.86 Z " /><path fill="rgb(239,168,57)" stroke="rgb(239,168,57)" stroke-width="1" opacity="0.4980392156862745" d="M 1637.52 797.61 L 1643.56 806.07 L 1638.73 803.65 L 1637.52 797.61 Z " /><path fill="rgb(239,168,57)" stroke="rgb(239,168,57)" stroke-width="1" opacity="0.4980392156862745" d="M 1644.77 809.69 L 1648.39 815.74 L 1645.98 815.74 L 1644.77 809.69 Z " /><path fill="rgb(239,168,57)" stroke="rgb(239,168,57)" stroke-width="1" opacity="0.4980392156862745" d="M 1649.6 819.36 L 1655.64 827.82 L 1650.81 825.41 L 1649.6 819.36 Z " /><path fill="rgb(239,168,57)" stroke="rgb(239,168,57)" stroke-width="1" opacity="0.4980392156862745" d="M 912.42 831.45 L 911.21 835.07 L 907.58 843.53 L 906.37 839.91 L 912.42 831.45 Z " /><path fill="rgb(239,168,57)" stroke="rgb(239,168,57)" stroke-width="1" opacity="0.4980392156862745" d="M 1661.69 841.12 L 1667.73 849.58 L 1662.9 847.16 L 1661.69 841.12 Z " /><path fill="rgb(239,168,57)" stroke="rgb(239,168,57)" stroke-width="1" opacity="0.4980392156862745" d="M 905.17 845.95 L 903.96 849.58 L 902.75 853.2 L 901.54 849.58 L 905.17 845.95 Z " /><path fill="rgb(239,168,57)" stroke="rgb(239,168,57)" stroke-width="1" opacity="0.4980392156862745" d="M 900.33 855.62 L 899.12 859.24 L 895.5 865.29 L 896.71 861.66 L 900.33 855.62 Z " /><path fill="rgb(239,168,57)" stroke="rgb(239,168,57)" stroke-width="1" opacity="0.4980392156862745" d="M 1673.77 862.87 L 1679.81 871.33 L 1674.98 868.91 L 1673.77 862.87 Z " /><path fill="rgb(239,168,57)" stroke="rgb(239,168,57)" stroke-width="1" opacity="0.4980392156862745" d="M 893.08 867.7 L 894.29 871.33 L 889.46 873.75 L 893.08 867.7 Z " /><path fill="rgb(239,168,57)" stroke="rgb(239,168,57)" stroke-width="1" opacity="0.4980392156862745" d="M 1681.02 874.95 L 1684.65 881 L 1682.23 881 L 1681.02 874.95 Z " /><path fill="rgb(239,168,57)" stroke="rgb(239,168,57)" stroke-width="1" opacity="0.4980392156862745" d="M 1238.71 887.04 L 1242.34 888.25 L 1237.5 889.46 L 1233.88 896.71 L 1235.09 893.08 L 1238.71 887.04 Z " /><path fill="rgb(239,168,57)" stroke="rgb(239,168,57)" stroke-width="1" opacity="0.4980392156862745" d="M 2413.37 889.46 L 2414.58 893.08 L 2409.75 895.5 L 2413.37 889.46 Z " /><path fill="rgb(239,168,57)" stroke="rgb(239,168,57)" stroke-width="1" opacity="0.4980392156862745" d="M 1245.96 896.71 L 1254.42 910 L 1249.59 907.58 L 1245.96 896.71 Z " /><path fill="rgb(239,168,57)" stroke="rgb(239,168,57)" stroke-width="1" opacity="0.4980392156862745" d="M 1231.46 899.12 L 1232.67 902.75 L 1226.63 911.21 L 1227.84 907.58 L 1231.46 899.12 Z " /><path fill="rgb(239,168,57)" stroke="rgb(239,168,57)" stroke-width="1" opacity="0.4980392156862745" d="M 876.16 901.54 L 874.95 905.17 L 873.75 908.79 L 872.54 905.17 L 876.16 901.54 Z " /><path fill="rgb(239,168,57)" stroke="rgb(239,168,57)" stroke-width="1" opacity="0.4980392156862745" d="M 750.48 906.37 L 751.69 910 L 745.64 918.46 L 746.85 914.83 L 750.48 906.37 Z " /><path fill="rgb(239,168,57)" stroke="rgb(239,168,57)" stroke-width="1" opacity="0.4980392156862745" d="M 1255.63 913.63 L 1261.67 922.09 L 1256.84 919.67 L 1255.63 913.63 Z " /><path fill="rgb(239,168,57)" stroke="rgb(239,168,57)" stroke-width="1" opacity="0.4980392156862745" d="M 743.23 920.88 L 744.44 924.5 L 739.6 926.92 L 743.23 920.88 Z " /><path fill="rgb(239,168,57)" stroke="rgb(239,168,57)" stroke-width="1" opacity="0.4980392156862745" d="M 1219.38 923.29 L 1218.17 926.92 L 1216.96 930.54 L 1215.75 926.92 L 1219.38 923.29 Z " /><path fill="rgb(239,168,57)" stroke="rgb(239,168,57)" stroke-width="1" opacity="0.4980392156862745" d="M 2396.46 923.29 L 2395.25 926.92 L 2391.62 932.96 L 2392.83 929.34 L 2396.46 923.29 Z " /><path fill="rgb(239,168,57)" stroke="rgb(239,168,57)" stroke-width="1" opacity="0.4980392156862745" d="M 864.08 925.71 L 862.87 929.34 L 856.83 942.63 L 855.62 939 L 864.08 925.71 Z " /><path fill="rgb(239,168,57)" stroke="rgb(239,168,57)" stroke-width="1" opacity="0.4980392156862745" d="M 738.39 930.54 L 739.6 934.17 L 734.77 936.59 L 738.39 930.54 Z " /><path fill="rgb(239,168,57)" stroke="rgb(239,168,57)" stroke-width="1" opacity="0.4980392156862745" d="M 1265.3 930.54 L 1271.34 939 L 1266.51 936.59 L 1265.3 930.54 Z " /><path fill="rgb(239,168,57)" stroke="rgb(239,168,57)" stroke-width="1" opacity="0.4980392156862745" d="M 1212.13 935.38 L 1213.33 939 L 1208.5 941.42 L 1212.13 935.38 Z " /><path fill="rgb(239,168,57)" stroke="rgb(239,168,57)" stroke-width="1" opacity="0.4980392156862745" d="M 2389.2 935.38 L 2390.41 939 L 2385.58 941.42 L 2389.2 935.38 Z " /><path fill="rgb(239,168,57)" stroke="rgb(239,168,57)" stroke-width="1" opacity="0.4980392156862745" d="M 1207.29 945.05 L 1208.5 948.67 L 1203.67 951.09 L 1207.29 945.05 Z " /><path fill="rgb(239,168,57)" stroke="rgb(239,168,57)" stroke-width="1" opacity="0.4980392156862745" d="M 2384.37 945.05 L 2385.58 948.67 L 2380.74 951.09 L 2384.37 945.05 Z " /><path fill="rgb(239,168,57)" stroke="rgb(239,168,57)" stroke-width="1" opacity="0.4980392156862745" d="M 851.99 947.46 L 853.2 951.09 L 848.37 953.51 L 851.99 947.46 Z " /><path fill="rgb(239,168,57)" stroke="rgb(239,168,57)" stroke-width="1" opacity="0.4980392156862745" d="M 1277.38 952.3 L 1283.43 960.76 L 1278.59 958.34 L 1277.38 952.3 Z " /><path fill="rgb(239,168,57)" stroke="rgb(239,168,57)" stroke-width="1" opacity="0.4980392156862745" d="M 721.47 964.38 L 720.27 968.01 L 719.06 971.63 L 717.85 968.01 L 721.47 964.38 Z " /><path fill="rgb(239,168,57)" stroke="rgb(239,168,57)" stroke-width="1" opacity="0.4980392156862745" d="M 1284.64 964.38 L 1290.68 972.84 L 1285.84 970.43 L 1284.64 964.38 Z " /><path fill="rgb(239,168,57)" stroke="rgb(239,168,57)" stroke-width="1" opacity="0.4980392156862745" d="M 2374.7 964.38 L 2373.49 968.01 L 2365.03 983.72 L 2366.24 980.09 L 2374.7 964.38 Z " /><path fill="rgb(239,168,57)" stroke="rgb(239,168,57)" stroke-width="1" opacity="0.4980392156862745" d="M 1192.79 974.05 L 1191.58 977.68 L 1187.96 983.72 L 1189.16 980.09 L 1192.79 974.05 Z " /><path fill="rgb(239,168,57)" stroke="rgb(239,168,57)" stroke-width="1" opacity="0.4980392156862745" d="M 714.22 976.47 L 715.43 980.09 L 710.6 982.51 L 714.22 976.47 Z " /><path fill="rgb(239,168,57)" stroke="rgb(239,168,57)" stroke-width="1" opacity="0.4980392156862745" d="M 835.07 981.3 L 833.86 984.93 L 832.66 988.55 L 831.45 984.93 L 835.07 981.3 Z " /><path fill="rgb(239,168,57)" stroke="rgb(239,168,57)" stroke-width="1" opacity="0.4980392156862745" d="M 709.39 986.14 L 710.6 989.76 L 704.56 998.22 L 705.76 994.6 L 709.39 986.14 Z " /><path fill="rgb(239,168,57)" stroke="rgb(239,168,57)" stroke-width="1" opacity="0.4980392156862745" d="M 1296.72 986.14 L 1299.14 990.97 L 1296.72 986.14 Z " /><path fill="rgb(239,168,57)" stroke="rgb(239,168,57)" stroke-width="1" opacity="0.4980392156862745" d="M 830.24 990.97 L 829.03 994.6 L 827.82 998.22 L 826.61 994.6 L 830.24 990.97 Z " /><path fill="rgb(239,168,57)" stroke="rgb(239,168,57)" stroke-width="1" opacity="0.4980392156862745" d="M 1183.12 990.97 L 1184.33 994.6 L 1179.5 997.01 L 1183.12 990.97 Z " /><path fill="rgb(239,168,57)" stroke="rgb(239,168,57)" stroke-width="1" opacity="0.4980392156862745" d="M 2360.2 990.97 L 2361.41 994.6 L 2356.57 997.01 L 2360.2 990.97 Z " /><path fill="rgb(239,168,57)" stroke="rgb(239,168,57)" stroke-width="1" opacity="0.4980392156862745" d="M 702.14 1000.64 L 703.35 1004.26 L 698.51 1006.68 L 702.14 1000.64 Z " /><path fill="rgb(239,168,57)" stroke="rgb(239,168,57)" stroke-width="1" opacity="0.4980392156862745" d="M 825.41 1000.64 L 824.2 1004.26 L 813.32 1024.81 L 814.53 1021.18 L 825.41 1000.64 Z " /><path fill="rgb(239,168,57)" stroke="rgb(239,168,57)" stroke-width="1" opacity="0.4980392156862745" d="M 1306.39 1003.05 L 1312.43 1011.51 L 1307.6 1009.1 L 1306.39 1003.05 Z " /><path fill="rgb(239,168,57)" stroke="rgb(239,168,57)" stroke-width="1" opacity="0.4980392156862745" d="M 1173.45 1010.31 L 1172.24 1013.93 L 1171.04 1017.56 L 1169.83 1013.93 L 1173.45 1010.31 Z " /><path fill="rgb(239,168,57)" stroke="rgb(239,168,57)" stroke-width="1" opacity="0.4980392156862745" d="M 2350.53 1010.31 L 2349.32 1013.93 L 2345.7 1019.97 L 2346.91 1016.35 L 2350.53 1010.31 Z " /><path fill="rgb(239,168,57)" stroke="rgb(239,168,57)" stroke-width="1" opacity="0.4980392156862745" d="M 1313.64 1015.14 L 1319.68 1023.6 L 1314.85 1021.18 L 1313.64 1015.14 Z " /><path fill="rgb(239,168,57)" stroke="rgb(239,168,57)" stroke-width="1" opacity="0.4980392156862745" d="M 1166.2 1022.39 L 1167.41 1026.02 L 1162.58 1028.43 L 1166.2 1022.39 Z " /><path fill="rgb(239,168,57)" stroke="rgb(239,168,57)" stroke-width="1" opacity="0.4980392156862745" d="M 2343.28 1022.39 L 2344.49 1026.02 L 2339.66 1028.43 L 2343.28 1022.39 Z " /><path fill="rgb(239,168,57)" stroke="rgb(239,168,57)" stroke-width="1" opacity="0.4980392156862745" d="M 1161.37 1032.06 L 1162.58 1035.68 L 1157.74 1038.1 L 1161.37 1032.06 Z " /><path fill="rgb(239,168,57)" stroke="rgb(239,168,57)" stroke-width="1" opacity="0.4980392156862745" d="M 1325.72 1036.89 L 1328.14 1041.73 L 1325.72 1036.89 Z " /><path fill="rgb(239,168,57)" stroke="rgb(239,168,57)" stroke-width="1" opacity="0.4980392156862745" d="M 680.39 1044.14 L 679.18 1047.77 L 677.97 1051.39 L 676.76 1047.77 L 680.39 1044.14 Z " /><path fill="rgb(239,168,57)" stroke="rgb(239,168,57)" stroke-width="1" opacity="0.4980392156862745" d="M 1330.56 1044.14 L 1334.18 1050.19 L 1329.35 1047.77 L 1330.56 1044.14 Z " /><path fill="rgb(239,168,57)" stroke="rgb(239,168,57)" stroke-width="1" opacity="0.4980392156862745" d="M 2328.78 1051.39 L 2327.57 1055.02 L 2321.53 1065.9 L 2322.74 1062.27 L 2328.78 1051.39 Z " /><path fill="rgb(239,168,57)" stroke="rgb(239,168,57)" stroke-width="1" opacity="0.4980392156862745" d="M 1335.39 1053.81 L 1341.43 1062.27 L 1336.6 1059.85 L 1335.39 1053.81 Z " /><path fill="rgb(239,168,57)" stroke="rgb(239,168,57)" stroke-width="1" opacity="0.4980392156862745" d="M 673.13 1056.23 L 674.34 1059.85 L 661.05 1082.82 L 662.26 1079.19 L 673.13 1056.23 Z " /><path fill="rgb(239,168,57)" stroke="rgb(239,168,57)" stroke-width="1" opacity="0.4980392156862745" d="M 1149.28 1056.23 L 1148.07 1059.85 L 1139.62 1075.56 L 1140.82 1071.94 L 1149.28 1056.23 Z " /><path fill="rgb(239,168,57)" stroke="rgb(239,168,57)" stroke-width="1" opacity="0.4980392156862745" d="M 793.98 1061.06 L 792.78 1064.69 L 791.57 1068.31 L 790.36 1064.69 L 793.98 1061.06 Z " /><path fill="rgb(239,168,57)" stroke="rgb(239,168,57)" stroke-width="1" opacity="0.4980392156862745" d="M 789.15 1070.73 L 787.94 1074.36 L 786.73 1077.98 L 785.52 1074.36 L 789.15 1070.73 Z " /><path fill="rgb(239,168,57)" stroke="rgb(239,168,57)" stroke-width="1" opacity="0.4980392156862745" d="M 1345.06 1070.73 L 1347.48 1075.56 L 1345.06 1070.73 Z " /><path fill="rgb(239,168,57)" stroke="rgb(239,168,57)" stroke-width="1" opacity="0.4980392156862745" d="M 1137.2 1077.98 L 1138.41 1081.61 L 1133.57 1084.02 L 1137.2 1077.98 Z " /><path fill="rgb(239,168,57)" stroke="rgb(239,168,57)" stroke-width="1" opacity="0.4980392156862745" d="M 1349.89 1077.98 L 1353.52 1084.02 L 1348.69 1081.61 L 1349.89 1077.98 Z " /><path fill="rgb(239,168,57)" stroke="rgb(239,168,57)" stroke-width="1" opacity="0.4980392156862745" d="M 2314.28 1077.98 L 2315.49 1081.61 L 2310.65 1084.02 L 2314.28 1077.98 Z " /><path fill="rgb(239,168,57)" stroke="rgb(239,168,57)" stroke-width="1" opacity="0.4980392156862745" d="M 784.32 1080.4 L 783.11 1084.02 L 781.9 1087.65 L 780.69 1084.02 L 784.32 1080.4 Z " /><path fill="rgb(239,168,57)" stroke="rgb(239,168,57)" stroke-width="1" opacity="0.4980392156862745" d="M 1132.36 1087.65 L 1133.57 1091.28 L 1128.74 1093.69 L 1132.36 1087.65 Z " /><path fill="rgb(239,168,57)" stroke="rgb(239,168,57)" stroke-width="1" opacity="0.4980392156862745" d="M 1354.73 1087.65 L 1363.19 1100.94 L 1358.35 1098.53 L 1354.73 1087.65 Z " /><path fill="rgb(239,168,57)" stroke="rgb(239,168,57)" stroke-width="1" opacity="0.4980392156862745" d="M 656.22 1090.07 L 657.42 1093.69 L 652.59 1096.11 L 656.22 1090.07 Z " /><path fill="rgb(239,168,57)" stroke="rgb(239,168,57)" stroke-width="1" opacity="0.4980392156862745" d="M 779.48 1090.07 L 778.27 1093.69 L 774.65 1099.73 L 775.86 1096.11 L 779.48 1090.07 Z " /><path fill="rgb(239,168,57)" stroke="rgb(239,168,57)" stroke-width="1" opacity="0.4980392156862745" d="M 1127.53 1097.32 L 1126.32 1100.94 L 1125.11 1104.57 L 1123.9 1100.94 L 1127.53 1097.32 Z " /><path fill="rgb(239,168,57)" stroke="rgb(239,168,57)" stroke-width="1" opacity="0.4980392156862745" d="M 2304.61 1097.32 L 2303.4 1100.94 L 2299.78 1106.99 L 2300.98 1103.36 L 2304.61 1097.32 Z " /><path fill="rgb(239,168,57)" stroke="rgb(239,168,57)" stroke-width="1" opacity="0.4980392156862745" d="M 1364.4 1104.57 L 1370.44 1113.03 L 1365.6 1110.61 L 1364.4 1104.57 Z " /><path fill="rgb(239,168,57)" stroke="rgb(239,168,57)" stroke-width="1" opacity="0.4980392156862745" d="M 1122.7 1106.99 L 1121.49 1110.61 L 1117.86 1116.65 L 1119.07 1113.03 L 1122.7 1106.99 Z " /><path fill="rgb(239,168,57)" stroke="rgb(239,168,57)" stroke-width="1" opacity="0.4980392156862745" d="M 2297.36 1109.4 L 2298.57 1113.03 L 2293.73 1115.45 L 2297.36 1109.4 Z " /><path fill="rgb(239,168,57)" stroke="rgb(239,168,57)" stroke-width="1" opacity="0.4980392156862745" d="M 1371.65 1116.65 L 1375.27 1122.7 L 1370.44 1120.28 L 1371.65 1116.65 Z " /><path fill="rgb(239,168,57)" stroke="rgb(239,168,57)" stroke-width="1" opacity="0.4980392156862745" d="M 1115.45 1119.07 L 1116.65 1122.7 L 1110.61 1131.16 L 1111.82 1127.53 L 1115.45 1119.07 Z " /><path fill="rgb(239,168,57)" stroke="rgb(239,168,57)" stroke-width="1" opacity="0.4980392156862745" d="M 1376.48 1126.32 L 1382.52 1134.78 L 1377.69 1132.36 L 1376.48 1126.32 Z " /><path fill="rgb(239,168,57)" stroke="rgb(239,168,57)" stroke-width="1" opacity="0.4980392156862745" d="M 634.46 1133.57 L 633.25 1137.2 L 624.79 1152.91 L 626 1149.28 L 634.46 1133.57 Z " /><path fill="rgb(239,168,57)" stroke="rgb(239,168,57)" stroke-width="1" opacity="0.4980392156862745" d="M 2282.86 1138.41 L 2281.65 1142.03 L 2275.61 1152.91 L 2276.81 1149.28 L 2282.86 1138.41 Z " /><path fill="rgb(239,168,57)" stroke="rgb(239,168,57)" stroke-width="1" opacity="0.4980392156862745" d="M 1103.36 1143.24 L 1102.15 1146.87 L 1098.53 1152.91 L 1099.73 1149.28 L 1103.36 1143.24 Z " /><path fill="rgb(239,168,57)" stroke="rgb(239,168,57)" stroke-width="1" opacity="0.4980392156862745" d="M 1386.15 1143.24 L 1392.19 1151.7 L 1387.36 1149.28 L 1386.15 1143.24 Z " /><path fill="rgb(239,168,57)" stroke="rgb(239,168,57)" stroke-width="1" opacity="0.4980392156862745" d="M 750.48 1145.66 L 749.27 1149.28 L 740.81 1167.41 L 739.6 1163.79 L 750.48 1145.66 Z " /><path fill="rgb(239,168,57)" stroke="rgb(239,168,57)" stroke-width="1" opacity="0.4980392156862745" d="M 622.38 1155.33 L 623.59 1158.95 L 618.75 1161.37 L 622.38 1155.33 Z " /><path fill="rgb(239,168,57)" stroke="rgb(239,168,57)" stroke-width="1" opacity="0.4980392156862745" d="M 1096.11 1155.33 L 1097.32 1158.95 L 1092.48 1161.37 L 1096.11 1155.33 Z " /><path fill="rgb(239,168,57)" stroke="rgb(239,168,57)" stroke-width="1" opacity="0.4980392156862745" d="M 2273.19 1155.33 L 2274.4 1158.95 L 2269.56 1161.37 L 2273.19 1155.33 Z " /><path fill="rgb(239,168,57)" stroke="rgb(239,168,57)" stroke-width="1" opacity="0.4980392156862745" d="M 1395.82 1160.16 L 1398.23 1164.99 L 1395.82 1160.16 Z " /><path fill="rgb(239,168,57)" stroke="rgb(239,168,57)" stroke-width="1" opacity="0.4980392156862745" d="M 1091.28 1164.99 L 1092.48 1168.62 L 1087.65 1171.04 L 1091.28 1164.99 Z " /><path fill="rgb(239,168,57)" stroke="rgb(239,168,57)" stroke-width="1" opacity="0.4980392156862745" d="M 615.13 1169.83 L 616.33 1173.45 L 611.5 1175.87 L 615.13 1169.83 Z " /><path fill="rgb(239,168,57)" stroke="rgb(239,168,57)" stroke-width="1" opacity="0.4980392156862745" d="M 735.98 1172.24 L 737.18 1175.87 L 732.35 1178.29 L 735.98 1172.24 Z " /><path fill="rgb(239,168,57)" stroke="rgb(239,168,57)" stroke-width="1" opacity="0.4980392156862745" d="M 1405.49 1177.08 L 1411.53 1185.54 L 1406.69 1183.12 L 1405.49 1177.08 Z " /><path fill="rgb(239,168,57)" stroke="rgb(239,168,57)" stroke-width="1" opacity="0.4980392156862745" d="M 1081.61 1184.33 L 1080.4 1187.96 L 1071.94 1203.67 L 1073.15 1200.04 L 1081.61 1184.33 Z " /><path fill="rgb(239,168,57)" stroke="rgb(239,168,57)" stroke-width="1" opacity="0.4980392156862745" d="M 2258.69 1184.33 L 2257.48 1187.96 L 2249.02 1203.67 L 2250.23 1200.04 L 2258.69 1184.33 Z " /><path fill="rgb(239,168,57)" stroke="rgb(239,168,57)" stroke-width="1" opacity="0.4980392156862745" d="M 1415.15 1194 L 1421.2 1202.46 L 1416.36 1200.04 L 1415.15 1194 Z " /><path fill="rgb(239,168,57)" stroke="rgb(239,168,57)" stroke-width="1" opacity="0.4980392156862745" d="M 719.06 1206.08 L 717.85 1209.71 L 716.64 1213.33 L 715.43 1209.71 L 719.06 1206.08 Z " /><path fill="rgb(239,168,57)" stroke="rgb(239,168,57)" stroke-width="1" opacity="0.4980392156862745" d="M 1424.82 1210.92 L 1427.24 1215.75 L 1424.82 1210.92 Z " /><path fill="rgb(239,168,57)" stroke="rgb(239,168,57)" stroke-width="1" opacity="0.4980392156862745" d="M 593.37 1213.33 L 590.96 1218.17 L 593.37 1213.33 Z " /><path fill="rgb(240,169,59)" stroke="rgb(240,169,59)" stroke-width="1" opacity="0.996078431372549" d="M 170.4 0 L 1219.38 0 L 1220.58 3.63 L 1216.96 2.42 L 170.4 2.42 L 170.4 0 Z " /><path fill="rgb(240,169,59)" stroke="rgb(240,169,59)" stroke-width="1" opacity="0.996078431372549" d="M 1342.64 0 L 2232.1 0 L 2235.72 3.63 L 2232.1 2.42 L 1342.64 2.42 L 1342.64 0 Z " /><path fill="rgb(240,169,59)" stroke="rgb(240,169,59)" stroke-width="1" opacity="0.996078431372549" d="M 2275.61 77.34 L 2279.23 83.39 L 2274.4 80.97 L 2275.61 77.34 Z " /><path fill="rgb(240,169,59)" stroke="rgb(240,169,59)" stroke-width="1" opacity="0.996078431372549" d="M 2304.61 130.52 L 2308.23 136.56 L 2303.4 134.14 L 2304.61 130.52 Z " /><path fill="rgb(240,169,59)" stroke="rgb(240,169,59)" stroke-width="1" opacity="0.996078431372549" d="M 2391.62 290.04 L 2395.25 296.08 L 2390.41 293.67 L 2391.62 290.04 Z " /><path fill="rgb(240,169,59)" stroke="rgb(240,169,59)" stroke-width="1" opacity="0.996078431372549" d="M 421.77 328.71 L 422.97 1216.96 L 420.56 1216.96 L 421.77 328.71 Z " /><path fill="rgb(240,169,59)" stroke="rgb(240,169,59)" stroke-width="1" opacity="0.996078431372549" d="M 1642.35 398.8 L 1639.93 403.64 L 1642.35 398.8 Z " /><path fill="rgb(240,169,59)" stroke="rgb(240,169,59)" stroke-width="1" opacity="0.996078431372549" d="M 1120.28 430.23 L 1121.49 433.85 L 1116.65 436.27 L 1120.28 430.23 Z " /><path fill="rgb(240,169,59)" stroke="rgb(240,169,59)" stroke-width="1" opacity="0.996078431372549" d="M 1623.02 435.06 L 1621.81 438.69 L 1620.6 442.31 L 1619.39 438.69 L 1623.02 435.06 Z " /><path fill="rgb(240,169,59)" stroke="rgb(240,169,59)" stroke-width="1" opacity="0.996078431372549" d="M 1603.68 739.6 L 1606.1 744.44 L 1603.68 739.6 Z " /><path fill="rgb(240,169,59)" stroke="rgb(240,169,59)" stroke-width="1" opacity="0.996078431372549" d="M 1615.76 761.35 L 1618.18 766.19 L 1615.76 761.35 Z " /><path fill="rgb(240,169,59)" stroke="rgb(240,169,59)" stroke-width="1" opacity="0.996078431372549" d="M 929.34 800.03 L 930.54 803.65 L 925.71 806.07 L 929.34 800.03 Z " /><path fill="rgb(240,169,59)" stroke="rgb(240,169,59)" stroke-width="1" opacity="0.996078431372549" d="M 893.08 872.54 L 890.66 877.37 L 893.08 872.54 Z " /><path fill="rgb(240,169,59)" stroke="rgb(240,169,59)" stroke-width="1" opacity="0.996078431372549" d="M 1685.86 884.62 L 2414.58 885.83 L 1685.86 887.04 L 1685.86 884.62 Z " /><path fill="rgb(240,169,59)" stroke="rgb(240,169,59)" stroke-width="1" opacity="0.996078431372549" d="M 1296.72 983.72 L 1299.14 988.55 L 1296.72 983.72 Z " /><path fill="rgb(240,169,59)" stroke="rgb(240,169,59)" stroke-width="1" opacity="0.996078431372549" d="M 813.32 1024.81 L 814.53 1028.43 L 809.69 1030.85 L 813.32 1024.81 Z " /><path fill="rgb(240,169,59)" stroke="rgb(240,169,59)" stroke-width="1" opacity="0.996078431372549" d="M 1325.72 1034.48 L 1328.14 1039.31 L 1325.72 1034.48 Z " /><path fill="rgb(240,169,59)" stroke="rgb(240,169,59)" stroke-width="1" opacity="0.996078431372549" d="M 1354.73 1085.23 L 1357.15 1090.07 L 1354.73 1085.23 Z " /><path fill="rgb(240,169,59)" stroke="rgb(240,169,59)" stroke-width="1" opacity="1" d="M 166.77 2.42 L 1216.96 2.42 L 1218.17 6.04 L 1080.4 269.5 L 1058.65 317.84 L 1050.19 328.71 L 754.1 328.71 L 754.1 897.92 L 588.54 1218.17 L 424.18 1218.17 L 422.97 1216.96 L 422.97 328.71 L 3.63 328.71 L 4.83 325.09 L 166.77 2.42 Z " /><path fill="rgb(240,169,59)" stroke="rgb(240,169,59)" stroke-width="1" opacity="1" d="M 1341.43 2.42 L 2232.1 2.42 L 2235.72 6.04 L 2414.58 335.96 L 1676.19 335.96 L 1672.56 339.59 L 1590.39 494.28 L 1585.55 508.78 L 1544.46 581.29 L 1532.38 605.46 L 1532.38 612.71 L 1684.65 887.04 L 2414.58 888.25 L 2240.56 1218.17 L 1429.66 1218.17 L 1428.45 1214.54 L 1242.34 890.66 L 1242.34 884.62 Q 1235.89 881.9 1237.5 888.25 L 1063.48 1218.17 L 715.43 1216.96 L 1341.43 2.42 Z " /></svg>